<svg xmlns="http://www.w3.org/2000/svg" width="100" height="100" viewBox="0 0 100 100">
  <g shape-rendering="crispEdges">
    <rect x="0" y="0" width="10" height="10" fill="#a89a7a"/>
    <rect x="10" y="0" width="10" height="10" fill="#7a6850"/>
    <rect x="20" y="0" width="10" height="10" fill="#b8a482"/>
    <rect x="30" y="0" width="10" height="10" fill="#4d5a3a"/>
    <rect x="40" y="0" width="10" height="10" fill="#a89a7a"/>
    <rect x="50" y="0" width="10" height="10" fill="#b8a482"/>
    <rect x="60" y="0" width="10" height="10" fill="#7a6850"/>
    <rect x="70" y="0" width="10" height="10" fill="#a89a7a"/>
    <rect x="80" y="0" width="10" height="10" fill="#1c1c1c"/>
    <rect x="90" y="0" width="10" height="10" fill="#4d5a3a"/>
    <rect x="0" y="10" width="10" height="10" fill="#7a6850"/>
    <rect x="10" y="10" width="10" height="10" fill="#a89a7a"/>
    <rect x="20" y="10" width="10" height="10" fill="#4d5a3a"/>
    <rect x="30" y="10" width="10" height="10" fill="#b8a482"/>
    <rect x="40" y="10" width="10" height="10" fill="#7a6850"/>
    <rect x="50" y="10" width="10" height="10" fill="#a89a7a"/>
    <rect x="60" y="10" width="10" height="10" fill="#b8a482"/>
    <rect x="70" y="10" width="10" height="10" fill="#4d5a3a"/>
    <rect x="80" y="10" width="10" height="10" fill="#7a6850"/>
    <rect x="90" y="10" width="10" height="10" fill="#a89a7a"/>
    <rect x="0" y="20" width="10" height="10" fill="#b8a482"/>
    <rect x="10" y="20" width="10" height="10" fill="#7a6850"/>
    <rect x="20" y="20" width="10" height="10" fill="#a89a7a"/>
    <rect x="30" y="20" width="10" height="10" fill="#1c1c1c"/>
    <rect x="40" y="20" width="10" height="10" fill="#a89a7a"/>
    <rect x="50" y="20" width="10" height="10" fill="#4d5a3a"/>
    <rect x="60" y="20" width="10" height="10" fill="#7a6850"/>
    <rect x="70" y="20" width="10" height="10" fill="#b8a482"/>
    <rect x="80" y="20" width="10" height="10" fill="#a89a7a"/>
    <rect x="90" y="20" width="10" height="10" fill="#7a6850"/>
    <rect x="0" y="30" width="10" height="10" fill="#4d5a3a"/>
    <rect x="10" y="30" width="10" height="10" fill="#b8a482"/>
    <rect x="20" y="30" width="10" height="10" fill="#7a6850"/>
    <rect x="30" y="30" width="10" height="10" fill="#a89a7a"/>
    <rect x="40" y="30" width="10" height="10" fill="#b8a482"/>
    <rect x="50" y="30" width="10" height="10" fill="#7a6850"/>
    <rect x="60" y="30" width="10" height="10" fill="#4d5a3a"/>
    <rect x="70" y="30" width="10" height="10" fill="#a89a7a"/>
    <rect x="80" y="30" width="10" height="10" fill="#b8a482"/>
    <rect x="90" y="30" width="10" height="10" fill="#7a6850"/>
    <rect x="0" y="40" width="10" height="10" fill="#a89a7a"/>
    <rect x="10" y="40" width="10" height="10" fill="#4d5a3a"/>
    <rect x="20" y="40" width="10" height="10" fill="#b8a482"/>
    <rect x="30" y="40" width="10" height="10" fill="#7a6850"/>
    <rect x="40" y="40" width="10" height="10" fill="#a89a7a"/>
    <rect x="50" y="40" width="10" height="10" fill="#b8a482"/>
    <rect x="60" y="40" width="10" height="10" fill="#a89a7a"/>
    <rect x="70" y="40" width="10" height="10" fill="#1c1c1c"/>
    <rect x="80" y="40" width="10" height="10" fill="#7a6850"/>
    <rect x="90" y="40" width="10" height="10" fill="#4d5a3a"/>
    <rect x="0" y="50" width="10" height="10" fill="#7a6850"/>
    <rect x="10" y="50" width="10" height="10" fill="#a89a7a"/>
    <rect x="20" y="50" width="10" height="10" fill="#4d5a3a"/>
    <rect x="30" y="50" width="10" height="10" fill="#b8a482"/>
    <rect x="40" y="50" width="10" height="10" fill="#7a6850"/>
    <rect x="50" y="50" width="10" height="10" fill="#a89a7a"/>
    <rect x="60" y="50" width="10" height="10" fill="#b8a482"/>
    <rect x="70" y="50" width="10" height="10" fill="#7a6850"/>
    <rect x="80" y="50" width="10" height="10" fill="#a89a7a"/>
    <rect x="90" y="50" width="10" height="10" fill="#b8a482"/>
    <rect x="0" y="60" width="10" height="10" fill="#b8a482"/>
    <rect x="10" y="60" width="10" height="10" fill="#7a6850"/>
    <rect x="20" y="60" width="10" height="10" fill="#a89a7a"/>
    <rect x="30" y="60" width="10" height="10" fill="#4d5a3a"/>
    <rect x="40" y="60" width="10" height="10" fill="#b8a482"/>
    <rect x="50" y="60" width="10" height="10" fill="#7a6850"/>
    <rect x="60" y="60" width="10" height="10" fill="#1c1c1c"/>
    <rect x="70" y="60" width="10" height="10" fill="#a89a7a"/>
    <rect x="80" y="60" width="10" height="10" fill="#7a6850"/>
    <rect x="90" y="60" width="10" height="10" fill="#b8a482"/>
    <rect x="0" y="70" width="10" height="10" fill="#a89a7a"/>
    <rect x="10" y="70" width="10" height="10" fill="#4d5a3a"/>
    <rect x="20" y="70" width="10" height="10" fill="#7a6850"/>
    <rect x="30" y="70" width="10" height="10" fill="#a89a7a"/>
    <rect x="40" y="70" width="10" height="10" fill="#4d5a3a"/>
    <rect x="50" y="70" width="10" height="10" fill="#b8a482"/>
    <rect x="60" y="70" width="10" height="10" fill="#7a6850"/>
    <rect x="70" y="70" width="10" height="10" fill="#a89a7a"/>
    <rect x="80" y="70" width="10" height="10" fill="#b8a482"/>
    <rect x="90" y="70" width="10" height="10" fill="#7a6850"/>
    <rect x="0" y="80" width="10" height="10" fill="#7a6850"/>
    <rect x="10" y="80" width="10" height="10" fill="#b8a482"/>
    <rect x="20" y="80" width="10" height="10" fill="#a89a7a"/>
    <rect x="30" y="80" width="10" height="10" fill="#7a6850"/>
    <rect x="40" y="80" width="10" height="10" fill="#a89a7a"/>
    <rect x="50" y="80" width="10" height="10" fill="#1c1c1c"/>
    <rect x="60" y="80" width="10" height="10" fill="#b8a482"/>
    <rect x="70" y="80" width="10" height="10" fill="#4d5a3a"/>
    <rect x="80" y="80" width="10" height="10" fill="#a89a7a"/>
    <rect x="90" y="80" width="10" height="10" fill="#7a6850"/>
    <rect x="0" y="90" width="10" height="10" fill="#4d5a3a"/>
    <rect x="10" y="90" width="10" height="10" fill="#a89a7a"/>
    <rect x="20" y="90" width="10" height="10" fill="#b8a482"/>
    <rect x="30" y="90" width="10" height="10" fill="#4d5a3a"/>
    <rect x="40" y="90" width="10" height="10" fill="#7a6850"/>
    <rect x="50" y="90" width="10" height="10" fill="#a89a7a"/>
    <rect x="60" y="90" width="10" height="10" fill="#b8a482"/>
    <rect x="70" y="90" width="10" height="10" fill="#7a6850"/>
    <rect x="80" y="90" width="10" height="10" fill="#4d5a3a"/>
    <rect x="90" y="90" width="10" height="10" fill="#a89a7a"/>
    <path d="M52 42 L54 44 L56 42 L58 44 L57 47 L60 48 L57 50 L58 53 L55 52 L54 55 L53 52 L50 53 L51 50 L48 48 L51 47 L50 44 L52 44 Z" fill="#7a6850"/>
    <path d="M22 75 L24 77 L26 75 L28 77 L27 80 L30 81 L27 83 L28 86 L25 85 L24 88 L23 85 L20 86 L21 83 L18 81 L21 80 L20 77 L22 77 Z" fill="#1c1c1c"/>
  </g>
</svg>
